<svg height="512pt" viewBox="-46 0 512 512.00079" width="512pt" xmlns="http://www.w3.org/2000/svg"><g fill-rule="evenodd"><path d="m126.625 190.089844h166.75l76-157.089844-82.285156-23c-8.871094 34.296875-40.019532 59.625-77.089844 59.625-37.066406 0-68.21875-25.328125-77.089844-59.625l-82.28125 23zm0 0" fill="#78d0a9"/><path d="m293.636719 234.652344h-167.273438l-116.359375 213.761718c30.402344 17.554688 62.847656 30.949219 96.46875 39.957032 33.625 9.011718 68.421875 13.632812 103.527344 13.632812 35.109375 0 69.90625-4.621094 103.53125-13.632812 33.621094-9.007813 66.066406-22.40625 96.46875-39.957032zm0 0" fill="#78d0a9"/><path d="m126.363281 234.652344h167.273438l-.261719-44.5625h-166.75zm0 0" fill="#ffc059"/></g><path d="m418.785156 443.632812-115.160156-211.554687-.234375-39.726563 74.988281-154.996093c1.289063-2.664063 1.332032-5.765625.113282-8.464844-1.21875-2.703125-3.570313-4.722656-6.421876-5.519531l-82.285156-23c-2.589844-.726563-5.355468-.3789065-7.683594.964844-2.328124 1.339843-4.019531 3.5625-4.691406 6.160156-7.9375 30.691406-35.660156 52.128906-67.410156 52.128906-31.746094 0-59.46875-21.4375-67.40625-52.128906-.675781-2.601563-2.363281-4.820313-4.691406-6.160156-2.328125-1.33984425-5.097656-1.6875-7.683594-.964844l-82.285156 23c-2.851563.796875-5.203125 2.816406-6.421875 5.519531-1.21875 2.699219-1.175781 5.800781.113281 8.464844l8.109375 16.761719c2.40625 4.972656 8.386719 7.050781 13.355469 4.648437 4.972656-2.40625 7.054687-8.386719 4.648437-13.359375l-2.902343-5.992188 61.503906-17.191406c13.15625 34.253906 46.234375 57.402344 83.660156 57.402344s70.503906-23.148438 83.664062-57.402344l61.5 17.191406-68.058593 140.675782h-154.207031l-30.320313-62.667969c-2.402344-4.972656-8.382813-7.050781-13.355469-4.644531-4.972656 2.402344-7.050781 8.382812-4.648437 13.355468l32.039062 66.222657-.230469 39.722656-115.164062 211.554687c-2.59375 4.761719-.914062 10.726563 3.785156 13.4375 30.945313 17.871094 64.035156 31.546876 98.320313 40.785157.050781.015625.101562.042969.152343.058593.335938.105469.671876.183594 1.011719.253907 34.300781 9.136719 69.785157 13.832031 105.511719 13.832031 35.730469 0 71.210938-4.695312 105.511719-13.832031.339843-.070313.679687-.148438 1.015625-.253907.054687-.019531.101562-.042968.15625-.058593 34.28125-9.238281 67.367187-22.914063 98.316406-40.785157 4.699219-2.710937 6.378906-8.675781 3.785156-13.4375zm-282.214844-243.542968h146.863282l.144531 24.5625h-147.15625zm183.582032 276.003906-22.261719-70.875c-1.65625-5.269531-7.273437-8.199219-12.539063-6.542969-5.269531 1.652344-8.195312 7.265625-6.542968 12.535157l22.003906 70.050781c-26.417969 6.328125-53.511719 9.898437-80.8125 10.601562v-47.773437c0-5.523438-4.476562-10-10-10-5.519531 0-10 4.476562-10 10v47.773437c-27.300781-.703125-54.390625-4.273437-80.8125-10.601562l22.003906-70.050781c1.65625-5.269532-1.273437-10.882813-6.542968-12.535157-5.273438-1.660156-10.882813 1.273438-12.535157 6.542969l-22.265625 70.875c-26.417968-7.777344-52.027344-18.335938-76.34375-31.574219l108.804688-199.867187h155.386718l108.800782 199.867187c-24.3125 13.238281-49.925782 23.796875-76.34375 31.574219zm0 0"/><path d="m285.722656 366.539062c-1.9375-5.171874-7.699218-7.785156-12.871094-5.847656-5.171874 1.9375-7.789062 7.707032-5.851562 12.875 1.507812 4.019532 5.316406 6.492188 9.367188 6.492188 1.164062 0 2.351562-.203125 3.507812-.636719 5.171875-1.941406 7.792969-7.703125 5.851562-12.875zm0 0"/><path d="m76.167969 95.773438c1.683593 0 3.386719-.425782 4.953125-1.316407 4.792968-2.742187 6.460937-8.851562 3.722656-13.644531l-.003906-.007812c-2.742188-4.796876-8.847656-6.457032-13.644532-3.71875-4.796874 2.742187-6.460937 8.851562-3.71875 13.648437 1.84375 3.230469 5.21875 5.039063 8.691407 5.039063zm0 0"/></svg>