<?xml version="1.0" encoding="iso-8859-1"?>
<!-- Generator: Adobe Illustrator 19.0.0, SVG Export Plug-In . SVG Version: 6.00 Build 0)  -->
<svg version="1.1" id="Capa_1" xmlns="http://www.w3.org/2000/svg" xmlns:xlink="http://www.w3.org/1999/xlink" x="0px" y="0px"
	 viewBox="0 0 512 512" style="enable-background:new 0 0 512 512;" xml:space="preserve">
<circle style="fill:#EDEEF0;" cx="256" cy="256" r="246.154"/>
<path d="M437.02,74.98C388.667,26.629,324.38,0,256,0S123.333,26.629,74.98,74.98S0,187.619,0,256s26.629,132.667,74.98,181.02
	S187.62,512,256,512s132.667-26.629,181.02-74.98S512,324.381,512,256S485.371,123.333,437.02,74.98z M256,492.308
	C125.699,492.308,19.692,386.3,19.692,256S125.699,19.692,256,19.692S492.308,125.7,492.308,256S386.301,492.308,256,492.308z"/>
<path d="M445.5,173.151l-0.061-0.137c-2.192-4.977-7.987-7.195-12.963-5.004c-4.976,2.192-7.217,8.041-5.025,13.018l0.082,0.186
	c1.624,3.665,5.201,5.825,8.961,5.825c1.34,0,2.705-0.275,4.011-0.854C445.477,183.98,447.703,178.122,445.5,173.151z"/>
<path d="M432.737,148.625c-22.303-36.635-54.815-65.053-94.023-82.184c-4.983-2.176-10.787,0.097-12.964,5.081
	c-2.178,4.983,0.097,10.787,5.08,12.964c35.478,15.502,64.901,41.221,85.087,74.379c1.855,3.045,5.097,4.727,8.42,4.727
	c1.744,0,3.511-0.464,5.11-1.438C434.091,159.328,435.564,153.27,432.737,148.625z"/>
<g>
</g>
<g>
</g>
<g>
</g>
<g>
</g>
<g>
</g>
<g>
</g>
<g>
</g>
<g>
</g>
<g>
</g>
<g>
</g>
<g>
</g>
<g>
</g>
<g>
</g>
<g>
</g>
<g>
</g>
</svg>
