<svg viewBox="-66 0 512 512" xmlns="http://www.w3.org/2000/svg"><path d="m310 131v-81h-240v81c0 52.320312 28.839844 100.378906 75 125-46.164062 24.621094-75 72.679688-75 125v81h240v-81c0-52.320312-28.839844-100.378906-75-125 46.164062-24.621094 75-72.679688 75-125zm0 0" fill="#adf3ff"/><path d="m350 10v20c0 11.050781-8.949219 20-20 20-14.550781 0-257.484375 0-280 0-11.050781 0-20-8.949219-20-20v-20zm0 0" fill="#495d85"/><path d="m350 482v20h-320v-20c0-11.050781 8.949219-20 20-20h280c11.050781 0 20 8.949219 20 20zm0 0" fill="#495d85"/><path d="m270 462h-160c0-37.660156 20.621094-47.011719 53.808594-64.691406l26.191406-13.957032 26.191406 13.957032c33.1875 17.679687 53.808594 27.03125 53.808594 64.691406zm0 0" fill="#ffd86e"/><path d="m236.828125 124.960938 33.050781 11.039062c-1.738281 35.679688-21.96875 67.800781-53.6875 84.691406l-26.191406 13.957032-26.191406-13.957032c-31.71875-16.890625-51.949219-49.019531-53.6875-84.703125l33.050781 11.050781c16.4375 5.492188 34.566406 1.210938 46.828125-11.039062 12.324219-12.324219 30.488281-16.511719 46.828125-11.039062zm0 0" fill="#ffd86e"/><path d="m190 332c-5.519531 0-10 4.480469-10 10s4.480469 10 10 10 10-4.480469 10-10-4.480469-10-10-10zm0 0"/><path d="m60 381v71h-10c-16.542969 0-30 13.457031-30 30v10h-10c-5.523438 0-10 4.476562-10 10s4.476562 10 10 10h360c5.523438 0 10-4.476562 10-10s-4.476562-10-10-10h-10v-10c0-16.542969-13.457031-30-30-30h-10v-71c0-50.414062-24.824219-96.917969-65.765625-125.003906 41.578125-28.582032 65.765625-75.542969 65.765625-124.996094v-71h10c16.542969 0 30-13.457031 30-30v-10h10c5.523438 0 10-4.476562 10-10s-4.476562-10-10-10h-360c-5.523438 0-10 4.476562-10 10s4.476562 10 10 10h10v10c0 16.542969 13.457031 30 30 30h10v71c0 50.414062 24.824219 96.917969 65.765625 125.003906-41.820313 28.746094-65.765625 75.835938-65.765625 124.996094zm270 91c5.515625 0 10 4.484375 10 10v10h-300v-10c0-5.515625 4.484375-10 10-10zm-209.375-20c3.003906-22.035156 17.03125-29.488281 43.894531-43.742188l25.480469-13.574218 25.480469 13.574218c26.863281 14.253907 40.886719 21.707032 43.894531 43.742188zm-70.625-412c-5.515625 0-10-4.484375-10-10v-10h300v10c0 5.515625-4.484375 10-10 10zm99.707031 224.824219c3.257813-1.738281 5.292969-5.132813 5.292969-8.824219s-2.035156-7.085938-5.292969-8.824219c-42.996093-22.933593-69.707031-67.449219-69.707031-116.175781v-71h220v71c0 48.589844-26.773438 93.28125-69.707031 116.175781-3.257813 1.738281-5.292969 5.132813-5.292969 8.824219s2.035156 7.085938 5.292969 8.824219c42.996093 22.933593 69.707031 67.449219 69.707031 116.175781v71h-20.519531c-3.628907-34.320312-26.402344-46.433594-54.625-61.410156l-30.152344-16.0625c-2.941406-1.570313-6.464844-1.570313-9.40625 0l-30.152344 16.0625c-28.222656 14.976562-51 27.089844-54.625 61.410156h-20.519531v-71c0-48.589844 26.773438-93.277344 69.707031-116.175781zm0 0"/><path d="m180 240.652344v61.347656c0 5.523438 4.476562 10 10 10s10-4.476562 10-10v-61.347656l20.890625-11.136719c34.660156-18.453125 57.058594-53.667969 58.976563-93.027344.21875-4.476562-2.566407-8.550781-6.816407-9.972656l-33.046875-11.039063c-5.703125-1.910156-11.644531-2.875-17.664062-2.875-14.882813 0-28.878906 5.796876-39.40625 16.324219-9.648438 9.640625-23.667969 12.949219-36.589844 8.628907l-33.050781-11.046876c-3.132813-1.046874-6.578125-.480468-9.210938 1.511719-2.632812 1.996094-4.109375 5.160157-3.949219 8.457031 1.90625 39.066407 24.058594 74.449219 58.976563 93.039063zm-57.9375-90.125 17.941406 5.996094c20.152344 6.730468 42.023438 1.578124 57.066406-13.453126 6.753907-6.753906 15.726563-10.472656 25.269532-10.472656 3.855468 0 7.664062.621094 11.320312 1.847656l25.570313 8.539063c-3.789063 29.378906-21.242188 54.769531-47.746094 68.882813l-21.484375 11.449218-21.488281-11.453125c-24.203125-12.886719-40.859375-35.183593-46.449219-61.335937zm0 0"/></svg>