<svg viewBox="0 -100 511.9998 511" xmlns="http://www.w3.org/2000/svg"><g fill-rule="evenodd"><path d="m453.257812 273.335938v-152.9375c0-15.480469-12.664062-28.140626-28.144531-28.140626h-386.929687c-15.476563 0-28.136719 12.660157-28.136719 28.140626v152.933593c0 15.480469 12.660156 28.144531 28.136719 28.144531h386.933594c15.476562 0 28.140624-12.664062 28.140624-28.140624zm0 0" fill="#6dc992"/><path d="m380.53125 301.476562h44.582031c15.480469 0 28.144531-12.664062 28.144531-28.144531v-44.582031c-40.167968 0-72.726562 32.558594-72.726562 72.726562zm-342.347656 0h44.585937c0-40.167968-32.558593-72.726562-72.722656-72.726562v44.582031c0 15.480469 12.660156 28.144531 28.136719 28.144531zm-28.136719-136.492187c40.164063 0 72.722656-32.5625 72.722656-72.726563h-44.585937c-15.476563 0-28.136719 12.664063-28.136719 28.140626zm221.601563 136.492187c47.253906 0 85.5625-46.835937 85.5625-104.609374 0-57.773438-38.308594-104.609376-85.5625-104.609376-47.25 0-85.558594 46.835938-85.558594 104.609376 0 57.773437 38.308594 104.609374 85.558594 104.609374zm148.882812-209.21875c0 40.164063 32.558594 72.726563 72.726562 72.726563v-44.585937c0-15.480469-12.664062-28.140626-28.144531-28.140626zm0 0" fill="#a5edc2"/><path d="m425.113281 92.257812c15.480469 0 28.144531 12.664063 28.144531 28.140626v100.757812l23.332032-2.289062c15.40625-1.511719 26.773437-15.347657 25.261718-30.75l-14.925781-152.207032c-1.511719-15.40625-15.351562-26.769531-30.753906-25.261718l-385.082031 37.765624c-15.40625 1.511719-26.769532 15.351563-25.261719 30.753907l1.285156 13.089843h.140625zm0 0" fill="#6dc992"/><path d="m463.300781 210.113281 12.351563-1.214843c4.925781-.480469 9.226562-2.957032 12.183594-6.554688 2.949218-3.59375 4.535156-8.3125 4.050781-13.289062l-14.929688-152.203126c-.972656-9.917968-9.945312-17.207031-19.84375-16.238281l-385.082031 37.769531c-4.929688.480469-9.230469 2.957032-12.1875 6.554688-2.949219 3.59375-4.535156 8.3125-4.046875 13.289062l.390625 3.984376h368.925781c10.511719 0 20.0625 4.296874 26.980469 11.210937 6.914062 6.917969 11.207031 16.46875 11.207031 26.976563zm-146.089843-23.292969c5.546874 0 10.046874 4.5 10.046874 10.046876 0 5.546874-4.5 10.042968-10.046874 10.042968-5.546876 0-10.046876-4.496094-10.046876-10.042968 0-5.546876 4.5-10.046876 10.046876-10.046876zm3.351562-32.203124c-4.546875-13.773438-11.449219-26.835938-20.640625-38.078126-4.3125-5.269531-9.042969-10.042968-14.128906-14.234374h85.296875c2.28125 18.839843 10.890625 35.730468 23.640625 48.480468s29.640625 21.359375 48.480469 23.636719v44.886719c-18.839844 2.28125-35.730469 10.890625-48.480469 23.640625s-21.359375 29.640625-23.640625 48.480469h-85.300782c5.089844-4.195313 9.820313-8.96875 14.132813-14.238282 8.832031-10.800781 15.902344-23.730468 20.640625-38.078125l-.066406-.03125c.621094-1.304687.972656-2.765625.972656-4.308593 0-5.550782-5.273438-10.046876-10.046875-10.046876s-7.53125 2.324219-9.144531 5.714844c-.0625.1875-.480469 1.445313-.542969 1.667969-3.949219 12.261719-9.894531 23.253906-17.351563 32.371094-13.621093 16.648437-32.273437 26.949219-52.730468 26.949219-20.460938 0-39.113282-10.300782-52.730469-26.949219-14.078125-17.210938-22.785156-41.109375-22.785156-67.613281 0-26.503907 8.707031-50.402344 22.785156-67.613282 13.617187-16.648437 32.269531-26.949218 52.730469-26.949218 20.457031 0 39.109375 10.296874 52.730468 26.949218 7.453126 9.117188 13.402344 20.109375 17.351563 32.371094.152344.5625.355469 1.128906.527344 1.691406 1.613281 3.386719 4.382812 5.691406 9.160156 5.691406 5.808594 0 12.136719-8.101562 9.140625-14.390624zm70.816406-52.316407h33.734375c4.96875 0 9.488281 2.039063 12.773438 5.324219 3.285156 3.285156 5.324219 7.808594 5.324219 12.773438v33.734374c-13.289063-2.136718-25.179688-8.453124-34.277344-17.554687-9.101563-9.097656-15.414063-20.988281-17.554688-34.277344zm-299.167968 0h85.296874c-5.085937 4.195313-9.816406 8.96875-14.125 14.238281-16.890624 20.648438-27.335937 49.058594-27.335937 80.328126 0 31.269531 10.445313 59.675781 27.335937 80.324218 4.308594 5.269532 9.039063 10.042969 14.128907 14.238282h-85.300781c-2.28125-18.839844-10.890626-35.730469-23.640626-48.480469s-29.640624-21.359375-48.480468-23.640625v-44.886719c18.839844-2.277344 35.730468-10.886719 48.480468-23.640625 12.75-12.746094 21.359376-29.636719 23.640626-48.480469zm-72.121094 51.835938v-33.738281c0-4.964844 2.039062-9.488282 5.324218-12.773438 3.285157-3.285156 7.804688-5.320312 12.769532-5.320312h33.738281c-2.140625 13.285156-8.453125 25.175781-17.554687 34.277343-9.101563 9.101563-20.992188 15.414063-34.277344 17.554688zm423.121094 85.460937c-13.285157 2.140625-25.175782 8.453125-34.277344 17.554688-9.101563 9.101562-15.414063 20.992187-17.554688 34.277344h33.734375c9.933594 0 18.097657-8.160157 18.097657-18.09375zm-371.289063 51.832032c-2.140625-13.285157-8.453125-25.175782-17.554687-34.277344-9.101563-9.101563-20.992188-15.414063-34.277344-17.554688v33.738282c0 9.929687 8.164062 18.09375 18.09375 18.09375zm-35.847656-209.160157-.210938-2.160156c-1.023437-10.425781 2.316407-20.332031 8.523438-27.882813 6.199219-7.550781 15.285156-12.75 25.761719-13.777343l385.082031-37.765625c20.90625-2.050782 39.613281 13.394531 41.660156 34.28125l14.925781 152.207031c2.050782 20.90625-13.394531 39.613281-34.28125 41.660156l-14.234375 1.398438v43.101562c0 21.023438-17.164062 38.1875-38.1875 38.1875h-386.929687c-21.019532 0-38.183594-17.164062-38.183594-38.183593v-152.9375c0-10.511719 4.292969-20.0625 11.210938-26.976563 6.449218-6.449219 15.1875-10.617187 24.863281-11.152344zm185.53125 44.847657c0-5.546876 4.496093-10.042969 10.046875-10.042969 5.546875 0 10.042968 4.496093 10.042968 10.042969v8.121093c6.050782 1.726563 11.460938 4.972657 15.789063 9.304688 6.613281 6.609375 10.703125 15.746093 10.703125 25.832031 0 5.546875-4.5 10.046875-10.046875 10.046875s-10.042969-4.5-10.042969-10.046875c0-4.542969-1.84375-8.652344-4.816406-11.628906-2.976562-2.976563-7.089844-4.816406-11.628906-4.816406-4.542969 0-8.65625 1.839843-11.632813 4.816406-2.972656 2.976562-4.816406 7.085937-4.816406 11.628906s1.84375 8.65625 4.816406 11.628906c2.976563 2.976563 7.089844 4.816406 11.632813 4.816406 10.085937 0 19.21875 4.089844 25.832031 10.703126 6.613281 6.609374 10.703125 15.746093 10.703125 25.832031 0 10.089843-4.089844 19.222656-10.703125 25.835937-4.328125 4.328125-9.738281 7.574219-15.789063 9.300782v8.121093c0 5.550781-4.496093 10.046875-10.042968 10.046875-5.550782 0-10.046875-4.496094-10.046875-10.046875v-8.121093c-6.050781-1.726563-11.460938-4.972657-15.789063-9.300782-6.613281-6.613281-10.703125-15.746094-10.703125-25.835937 0-5.546875 4.5-10.042969 10.046875-10.042969s10.042969 4.496094 10.042969 10.042969c0 4.542969 1.84375 8.65625 4.816406 11.632812 2.976563 2.972657 7.089844 4.8125 11.632813 4.8125 4.539062 0 8.652344-1.839843 11.628906-4.8125 2.976562-2.976562 4.816406-7.089843 4.816406-11.632812 0-4.539063-1.84375-8.652344-4.816406-11.628907-2.976562-2.976562-7.089844-4.816406-11.628906-4.816406-10.089844 0-19.222656-4.089844-25.835938-10.699218-6.613281-6.613282-10.703125-15.75-10.703125-25.835938s4.089844-19.222656 10.703125-25.832031c4.328125-4.332031 9.738282-7.578125 15.789063-9.304688zm0 0"/></g></svg>