<svg viewBox="0 -44 512.00002 512" xmlns="http://www.w3.org/2000/svg"><g fill-rule="evenodd"><path d="m442.539062 345.476562c32.695313 0 59.449219-26.753906 59.449219-59.449218 0-32.699219-29.140625-47.1875-59.449219-59.449219l-186.539062-75.464844-186.539062 75.460938c-26.992188 10.921875-59.449219 25.367187-59.449219 59.453125 0 32.695312 26.753906 59.449218 59.449219 59.449218zm0 0" fill="#c2edff"/><path d="m325.363281 345.476562c0 38.308594-31.054687 69.363282-69.363281 69.363282s-69.363281-31.054688-69.363281-69.363282c0-38.308593 31.054687-69.363281 69.363281-69.363281s69.363281 31.054688 69.363281 69.363281zm0 0" fill="#ff77ad"/><path d="m256 266.101562c21.917969 0 41.761719 8.886719 56.125 23.25 12.140625 12.144532 20.367188 28.199219 22.625 46.113282h107.789062c13.585938 0 25.941407-5.5625 34.90625-14.53125 8.964844-8.964844 14.53125-21.320313 14.53125-34.90625 0-12.894532-5.859374-22.292969-14.761718-29.726563-10-8.34375-24.039063-14.632812-38.433594-20.457031l-182.78125-73.941406-81.941406 33.148437c-1.21875.527344-2.558594.816407-3.96875.816407-5.523438 0-10-4.476563-10-10 0-4.277344 2.6875-7.925782 6.464844-9.355469l85.691406-34.664063c.285156-.113281.570312-.21875.855468-.304687 13.53125-5.011719 29.839844-15.863281 41.769532-30.023438 9.203125-10.925781 15.632812-23.726562 15.632812-36.992187 0-15.050782-6.101562-28.679688-15.964844-38.542969-9.859374-9.859375-23.488281-15.960937-38.539062-15.960937s-28.679688 6.101562-38.539062 15.960937c-9.863282 9.863281-15.964844 23.492187-15.964844 38.542969 0 5.527344-4.480469 10.011718-10.011719 10.011718s-10.011719-4.480468-10.011719-10.011718c0-20.578125 8.34375-39.210938 21.828125-52.699219 13.488281-13.484375 32.121094-21.828125 52.699219-21.828125s39.210938 8.34375 52.699219 21.828125c13.484375 13.488281 21.828125 32.117187 21.828125 52.699219 0 18.421875-8.394532 35.558594-20.40625 49.820312-8.644532 10.257813-19.253906 19.078125-29.90625 25.777344l166.078125 67.183594c15.917969 6.4375 31.601562 13.523437 43.75 23.664062 13.242187 11.054688 21.957031 25.25 21.957031 45.054688 0 19.109375-7.8125 36.480468-20.398438 49.0625-12.582031 12.585937-29.953124 20.398437-49.0625 20.398437h-107.789062c-2.257812 17.914063-10.484375 33.972657-22.625 46.113281-14.363281 14.363282-34.207031 23.25-56.125 23.25s-41.761719-8.886718-56.125-23.25c-12.140625-12.144531-20.367188-28.199218-22.625-46.113281h-107.789062c-19.109376 0-36.476563-7.8125-49.0625-20.398437-12.585938-12.582032-20.398438-29.949219-20.398438-49.0625 0-20.625 9.667969-35.1875 23.355469-46.195313 12.59375-10.125 28.210937-16.800781 42.351562-22.523437l27.46875-11.109375c1.214844-.527344 2.558594-.820313 3.96875-.820313 5.523438 0 10 4.476563 10 10 0 4.117188-2.488281 7.652344-6.039062 9.1875l-.023438.007813c-.117187.050781-.238281.101562-.363281.148437l-27.5 11.125c-12.851562 5.199219-26.964844 11.203125-37.347656 19.550782-9.285156 7.46875-15.847656 17.171874-15.847656 30.632812 0 13.582031 5.566406 25.941406 14.53125 34.90625 8.964843 8.964844 21.324218 14.53125 34.90625 14.53125h107.789062c2.257812-17.914062 10.484375-33.972656 22.625-46.113281 14.363281-14.367188 34.207031-23.253907 56.125-23.253907zm-122.644531-75.371093c-5.523438 0-10 4.476562-10 10 0 5.523437 4.476562 10 10 10 5.523437 0 10-4.476563 10-10 0-5.523438-4.476563-10-10-10zm112.632812 125.695312v19.039063h-19.039062c-5.527344 0-10.011719 4.484375-10.011719 10.011718 0 5.53125 4.480469 10.011719 10.011719 10.011719h19.039062v19.039063c0 5.53125 4.480469 10.011718 10.011719 10.011718 5.527344 0 10.011719-4.480468 10.011719-10.011718v-19.039063h19.039062c5.527344 0 10.011719-4.480469 10.011719-10.011719 0-5.527343-4.484375-10.011718-10.011719-10.011718h-19.039062v-19.039063c0-5.527343-4.480469-10.011719-10.011719-10.011719-5.527344 0-10.011719 4.484376-10.011719 10.011719zm51.980469-12.917969c-10.738281-10.738281-25.578125-17.382812-41.96875-17.382812s-31.230469 6.644531-41.96875 17.382812c-23.046875 23.050782-23.046875 60.890626 0 83.9375 10.738281 10.738282 25.578125 17.382813 41.96875 17.382813s31.226562-6.644531 41.96875-17.382813c23.046875-23.046874 23.046875-60.886718 0-83.9375zm0 0"/></g></svg>