<svg viewBox="0 -26 512.00063 512" xmlns="http://www.w3.org/2000/svg"><path d="m396 70-58.378906-17.539062-31.230469-42.460938h-101.472656l-31.226563 42.460938-57.691406 17.539062-106 106 80 80 26-26v220h280v-220l26 26 80-80zm0 0" fill="#a8ebfa"/><path d="m306.390625 10-50.699219 76.160156 2.027344 1.46875 68.671875 49.761719 11.230469-84.929687zm0 0" fill="#fff"/><path d="m173.691406 52.460938 11.226563 84.929687 70.703125-51.230469-50.703125-76.160156zm0 0" fill="#fff"/><path d="m356 360c-5.519531 0-10 4.480469-10 10s4.480469 10 10 10 10-4.480469 10-10-4.480469-10-10-10zm0 0"/><path d="m509.070312 168.929688-106-106c-1.167968-1.167969-2.609374-2.03125-4.191406-2.507813l-55.183594-16.578125-29.25-39.769531c-1.914062-2.597657-5-4.074219-8.054687-4.074219h-101.472656c-3.160157 0-6.199219 1.550781-8.054688 4.074219l-29.261719 39.785156-54.511718 16.574219c-1.570313.476562-3 1.335937-4.160156 2.496094l-106 106c-3.90625 3.90625-3.90625 10.238281 0 14.144531l80 80c3.90625 3.902343 10.234374 3.902343 14.140624 0l8.929688-8.929688v195.855469c0 5.523438 4.480469 10 10 10h280c5.523438 0 10-4.476562 10-10v-195.855469l8.929688 8.929688c3.90625 3.902343 10.234374 3.902343 14.144531 0l80-80c3.902343-3.90625 3.902343-10.238281-.003907-14.144531zm-253.414062-100.761719-32.066406-48.167969h64.128906zm51.140625-40.734375 20.382813 27.707031-8.503907 64.3125-49.335937-35.75zm-102.285156 0 37.460937 56.269531-49.339844 35.75-8.5-64.3125zm-78.511719 162.566406c0-5.523438-4.476562-10-10-10s-10 4.476562-10 10v35.855469l-16 16-65.855469-65.855469 97.160157-97.160156 44.015624-13.382813 9.683594 73.242188c.996094 7.53125 9.683594 11.210937 15.78125 6.789062l55.214844-40.007812v334.519531h-120c0-12.207031 0-238.507812 0-250zm296 51.859375-16-16v-35.859375c0-5.523438-4.476562-10-10-10s-10 4.476562-10 10v250h-120v-334.019531l54.523438 39.507812c6.070312 4.398438 14.78125.769531 15.78125-6.785156l9.6875-73.285156 44.714843 13.433593 97.152344 97.148438zm0 0"/><path d="m356 220c-5.523438 0-10 4.476562-10 10v100c0 5.523438 4.476562 10 10 10s10-4.476562 10-10v-100c0-5.523438-4.476562-10-10-10zm0 0"/></svg>