<svg viewBox="-83 1 511 511.99998" xmlns="http://www.w3.org/2000/svg"><g fill-rule="evenodd"><path d="m44.9375 501.976562h256.292969c18.925781 0 34.410156-15.484374 34.410156-34.414062v-368.378906c0-18.925782-15.484375-34.414063-34.410156-34.414063-70.8125 0-185.480469 0-256.292969 0-18.929688 0-34.414062 15.488281-34.414062 34.414063v368.382812c0 18.925782 15.484374 34.410156 34.414062 34.410156zm0 0" fill="#c2edff"/><path d="m82.847656 274.902344h45.921875c13.097657 0 23.8125-10.714844 23.8125-23.8125v-57.90625c0-13.097656-10.714843-23.8125-23.8125-23.8125h-45.921875c-13.09375 0-23.8125 10.714844-23.8125 23.8125v57.910156c0 13.09375 10.71875 23.808594 23.8125 23.808594zm0 0" fill="#6dc992"/><path d="m101.777344 97.226562h142.609375c10.035156 0 18.25-8.210937 18.25-18.246093v-28.417969c0-10.039062-8.214844-18.25-18.25-18.25h-37.28125c0-12.261719-10.03125-22.289062-22.289063-22.289062h-23.464844c-12.261718 0-22.292968 10.027343-22.292968 22.289062h-37.28125c-10.035156 0-18.246094 8.210938-18.246094 18.25v28.417969c0 10.035156 8.210938 18.246093 18.246094 18.246093zm0 0" fill="#68b3de"/><path d="m272.65625 54.75h28.570312c12.230469 0 23.34375 4.996094 31.390626 13.042969 8.050781 8.050781 13.046874 19.160156 13.046874 31.390625v21c0 5.523437-4.476562 10-10 10-5.523437 0-10.042968-4.476563-10.042968-10v-21c0-6.695313-2.75-12.792969-7.171875-17.21875-4.425781-4.425782-10.523438-7.171875-17.222657-7.171875h-28.570312v4.1875c0 7.785156-3.179688 14.855469-8.296875 19.976562-5.117187 5.117188-12.191406 8.292969-19.972656 8.292969h-142.609375c-7.78125 0-14.855469-3.175781-19.972656-8.292969-5.117188-5.121093-8.296876-12.191406-8.296876-19.976562v-4.1875h-28.570312c-6.699219 0-12.792969 2.746093-17.21875 7.171875-4.425781 4.425781-7.171875 10.523437-7.171875 17.21875v267.382812c0 5.527344-4.53125 10-10.046875 10-5.519531 0-9.996094-4.476562-9.996094-10v-267.382812c0-12.226563 4.992188-23.339844 13.042969-31.390625 8.050781-8.046875 19.160156-13.042969 31.390625-13.042969h28.570312v-4.1875c0-7.785156 3.179688-14.855469 8.296876-19.976562 5.121093-5.117188 12.191406-8.296876 19.976562-8.296876h28.855469c1.601562-4.878906 4.335937-9.253906 7.886719-12.804687 5.847656-5.851563 13.929687-9.484375 22.828124-9.484375h23.464844c8.894532 0 16.976563 3.632812 22.828125 9.484375 3.550781 3.550781 6.285157 7.925781 7.886719 12.804687h28.855469c7.785156 0 14.855469 3.179688 19.972656 8.300782 5.121094 5.117187 8.296875 12.1875 8.296875 19.972656zm-262.15625 381.8125c-5.523438 0-10 4.480469-10 10v21c0 12.230469 4.996094 23.34375 13.042969 31.394531 8.050781 8.046875 19.160156 13.042969 31.390625 13.042969h256.292968c12.230469 0 23.34375-4.996094 31.390626-13.046875 8.050781-8.046875 13.046874-19.15625 13.046874-31.390625v-267.378906c0-5.523438-4.476562-10-10-10-5.515624 0-10.042968 4.46875-10.042968 10v267.378906c0 6.699219-2.75 12.796875-7.175782 17.21875-4.421874 4.425781-10.519531 7.175781-17.21875 7.175781h-256.289062c-6.699219 0-12.792969-2.75-17.21875-7.175781s-7.175781-10.519531-7.175781-17.21875v-21c0-5.519531-4.519531-10-10.042969-10zm0-40c5.523438 0 10 4.480469 10 10 0 5.523438-4.476562 10-10 10s-10-4.476562-10-10c0-5.519531 4.476562-10 10-10zm325.164062-246.378906c-5.523437 0-10 4.476562-10 10 0 5.523437 4.476563 10 10 10 5.523438 0 10-4.476563 10-10 0-5.523438-4.476562-10-10-10zm-138.316406 29.210937h89.78125c5.535156 0 10.019532-4.488281 10.019532-10.023437s-4.484376-10.019532-10.019532-10.019532h-89.78125c-5.535156 0-10.019531 4.484376-10.019531 10.019532-.003906 5.535156 4.484375 10.023437 10.019531 10.023437zm-138.3125 263.828125c-5.535156 0-10.023437-4.488281-10.023437-10.019531 0-5.535156 4.488281-10.023437 10.023437-10.023437h228.09375c5.535156 0 10.019532 4.488281 10.019532 10.023437 0 5.53125-4.484376 10.019531-10.019532 10.019531zm0-52.765625h228.09375c5.535156 0 10.019532-4.484375 10.019532-10.019531s-4.484376-10.023438-10.019532-10.023438h-228.09375c-5.535156 0-10.023437 4.488282-10.023437 10.023438.003906 5.53125 4.488281 10.019531 10.023437 10.019531zm0-52.765625h228.09375c5.535156 0 10.019532-4.484375 10.019532-10.019531s-4.484376-10.023437-10.019532-10.023437h-228.09375c-5.535156 0-10.023437 4.488281-10.023437 10.023437.003906 5.535156 4.488281 10.019531 10.023437 10.019531zm138.3125-52.765625h89.78125c5.535156 0 10.019532-4.484375 10.019532-10.019531s-4.484376-10.023438-10.019532-10.023438h-89.78125c-5.535156 0-10.019531 4.484376-10.019531 10.023438-.003906 5.53125 4.484375 10.019531 10.019531 10.019531zm0-52.765625h89.78125c5.535156 0 10.019532-4.488281 10.019532-10.023437 0-5.535157-4.484376-10.019531-10.019532-10.019531h-89.78125c-5.535156 0-10.019531 4.484374-10.019531 10.019531-.003906 5.535156 4.484375 10.023437 10.019531 10.023437zm-114.5-72.808594c-9.3125 0-17.773437 3.800782-23.902344 9.929688-6.128906 6.128906-9.929687 14.589844-9.929687 23.902344v57.910156c0 9.3125 3.804687 17.773438 9.929687 23.902344 6.128907 6.125 14.589844 9.929687 23.902344 9.929687h45.921875c9.316407 0 17.777344-3.804687 23.902344-9.929687 6.128906-6.128906 9.933594-14.589844 9.933594-23.902344v-57.910156c0-9.3125-3.804688-17.773438-9.933594-23.902344-6.125-6.128906-14.585937-9.929688-23.902344-9.929688zm45.921875 20.042969h-45.921875c-3.78125 0-7.226562 1.554688-9.730468 4.058594-2.503907 2.503906-4.058594 5.949219-4.058594 9.730469v57.910156c0 3.78125 1.554687 7.226562 4.058594 9.730469 2.503906 2.503906 5.949218 4.058593 9.730468 4.058593h45.921875c3.785157 0 7.230469-1.554687 9.730469-4.058593 2.507812-2.503907 4.0625-5.949219 4.0625-9.730469v-57.910156c0-3.78125-1.554688-7.226563-4.0625-9.730469-2.503906-2.503906-5.945312-4.058594-9.730469-4.058594zm-35.21875-100.414062c0 2.25.929688 4.304687 2.425781 5.800781 1.496094 1.496094 3.550782 2.425781 5.800782 2.425781h142.609375c2.25 0 4.304687-.929687 5.804687-2.425781 1.492188-1.496094 2.421875-3.550781 2.421875-5.800781v-28.417969c0-2.253906-.929687-4.308594-2.421875-5.804688-1.5-1.496093-3.554687-2.425781-5.804687-2.425781h-37.28125c-5.535157 0-10.023438-4.484375-10.023438-10.019531 0-3.363281-1.382812-6.429688-3.609375-8.65625-2.230468-2.230469-5.292968-3.613281-8.65625-3.613281h-23.464844c-3.363281 0-6.429687 1.382812-8.65625 3.613281-2.230468 2.226562-3.613281 5.292969-3.613281 8.65625 0 5.535156-4.484375 10.019531-10.019531 10.019531h-37.28125c-2.253906 0-4.308594.929688-5.804688 2.425781-1.496093 1.496094-2.425781 3.550782-2.425781 5.804688zm0 0"/></g></svg>