<svg height="512pt" viewBox="0 0 512 512" width="512pt" xmlns="http://www.w3.org/2000/svg"><path d="m50 144h208v278h-208zm0 0" fill="#ba87d8"/><path d="m257.667969 422h-207.335938l-35.058593 34.769531c-3.375 3.347657-5.273438 7.902344-5.273438 12.65625v14.753907c0 9.839843 7.980469 17.820312 17.824219 17.820312h252.355469c9.839843 0 17.820312-7.980469 17.820312-17.824219v-14.75c0-4.753906-1.898438-9.308593-5.273438-12.65625zm0 0" fill="#e8e7e9"/><path d="m10 81.824219v14.75c0 4.753906 1.898438 9.308593 5.273438 12.65625l35.058593 34.769531h207.332031l35.0625-34.769531c3.375-3.347657 5.273438-7.902344 5.273438-12.65625v-14.75c0-9.84375-7.980469-17.824219-17.824219-17.824219h-252.351562c-9.84375 0-17.824219 7.980469-17.824219 17.824219zm0 0" fill="#e8e7e9"/><path d="m449.4375 348.808594-27.886719-308.289063c-1.480469-16.390625 11.425781-30.519531 27.886719-30.519531 16.457031 0 29.363281 14.128906 27.882812 30.519531zm0 0" fill="#91def5"/><path d="m93.429688 368.898438c-2.628907 0-5.210938 1.070312-7.070313 2.929687-1.859375 1.863281-2.929687 4.441406-2.929687 7.070313 0 2.632812 1.070312 5.210937 2.929687 7.070312s4.441406 2.929688 7.070313 2.929688c2.628906 0 5.210937-1.070313 7.070312-2.929688 1.871094-1.859375 2.929688-4.4375 2.929688-7.070312 0-2.628907-1.058594-5.207032-2.929688-7.070313-1.859375-1.859375-4.441406-2.929687-7.070312-2.929687zm0 0"/><path d="m502 47.574219h-15.277344l.558594-6.152344c.957031-10.605469-2.609375-21.195313-9.792969-29.054687-7.179687-7.859376-17.40625-12.367188-28.050781-12.367188-10.648438 0-20.871094 4.507812-28.054688 12.367188-7.179687 7.859374-10.75 18.449218-9.789062 29.054687l.625 6.90625c-36.246094 5.117187-64.21875 36.324219-64.21875 73.957031v106.714844c0 25.546875-20.785156 46.332031-46.332031 46.332031-12.742188 0-24.453125 4.472657-33.667969 11.917969v-139.414062l31.769531-31.507813c5.230469-5.1875 8.230469-12.386719 8.230469-19.753906v-14.75c0-15.34375-12.480469-27.824219-27.820312-27.824219h-149.847657c-5.519531 0-10 4.476562-10 10s4.480469 10 10 10h149.847657c4.3125 0 7.820312 3.507812 7.820312 7.824219v14.75c0 2.070312-.84375 4.097656-2.3125 5.554687l-32.140625 31.871094h-96.875c-.003906 0-.007813 0-.011719 0h-102.207031l-32.140625-31.871094c-1.46875-1.457031-2.3125-3.484375-2.3125-5.554687v-14.75c0-4.316407 3.507812-7.824219 7.820312-7.824219h22.179688c5.523438 0 10-4.476562 10-10s-4.476562-10-10-10h-22.179688c-15.339843 0-27.820312 12.480469-27.820312 27.824219v14.75c0 7.367187 3 14.566406 8.230469 19.753906l31.769531 31.507813v270.328124l-31.769531 31.507813c-5.230469 5.1875-8.230469 12.386719-8.230469 19.753906v14.75c0 15.34375 12.480469 27.824219 27.820312 27.824219h252.355469c15.34375 0 27.824219-12.480469 27.824219-27.824219v-14.75c0-7.367187-3-14.566406-8.230469-19.753906l-31.769531-31.507813v-89.164062c0-18.5625 15.101562-33.667969 33.667969-33.667969 36.574219 0 66.332031-29.757812 66.332031-66.332031v-106.714844c0-27.210937 19.96875-49.835937 46.019531-54.011718l25.457031 281.4375c.464844 5.152343 4.785157 9.097656 9.960938 9.097656 5.171875 0 9.492188-3.945313 9.957031-9.097656l25.519531-282.136719h17.085938c5.523438 0 10-4.476563 10-10 0-5.523438-4.476562-10-10-10zm-254 364.425781h-32.191406l32.191406-32.191406zm-102.855469 0 102.855469-102.855469v42.378907l-60.476562 60.476562zm-85.144531 0v-56.191406l188-188v42.382812l-133.921875 133.917969c-3.902344 3.90625-3.902344 10.238281 0 14.144531 1.953125 1.953125 4.515625 2.929688 7.074219 2.929688s5.117187-.976563 7.070312-2.929688l119.777344-119.777344v42.382813l-131.144531 131.140625zm0-138.191406 26.855469 26.855468-26.855469 26.859376zm41 12.714844-41-41v-42.378907l62.191406 62.1875zm51.523438-132.523438 40.5 40.5-21.359376 21.359375-61.855468-61.859375zm54.644531 26.355469-26.359375-26.355469h52.714844zm-125.644531-26.355469 76 76-21.191407 21.191406-76.332031-76.332031v-20.859375zm206.476562 315.425781v14.75c0 4.3125-3.507812 7.824219-7.820312 7.824219h-252.359376c-4.3125 0-7.820312-3.507812-7.820312-7.824219v-14.75c0-2.070312.84375-4.097656 2.3125-5.554687l32.140625-31.871094h199.09375l32.140625 31.871094c1.46875 1.457031 2.3125 3.484375 2.3125 5.554687zm161.4375-231.628906-15.398438-170.222656h5.398438v.386719c0 5.523437 4.476562 10 10 10s10-4.476563 10-10v-20.773438c0-5.523438-4.476562-10-10-10s-10 4.476562-10 10v.386719h-7.207031l-.71875-7.957031c-.460938-5.09375 1.1875-9.980469 4.636719-13.757813 3.453124-3.777344 8.171874-5.859375 13.289062-5.859375s9.835938 2.082031 13.285156 5.859375c3.453125 3.777344 5.101563 8.664063 4.640625 13.761719zm0 0"/><path d="m90.328125 74c2.640625 0 5.210937-1.070312 7.070313-2.929688 1.871093-1.859374 2.929687-4.441406 2.929687-7.070312s-1.058594-5.210938-2.929687-7.070312c-1.859376-1.859376-4.429688-2.929688-7.070313-2.929688-2.628906 0-5.207031 1.070312-7.066406 2.929688-1.863281 1.859374-2.933594 4.441406-2.933594 7.070312s1.070313 5.210938 2.933594 7.070312c1.859375 1.859376 4.4375 2.929688 7.066406 2.929688zm0 0"/></svg>