<svg height="512pt" viewBox="-26 0 512 512.001" width="512pt" xmlns="http://www.w3.org/2000/svg"><g fill-rule="evenodd"><path d="m10 212.980469h77.324219v40h-77.324219zm0 0" fill="#ffc059"/><path d="m10 212.980469h77.324219v289.019531h285.347656v-289.019531h77.324219v-112.980469c0-33-27.796875-62.789062-60-70l-48.421875-10.84375-6.261719 10.84375c-21.722656 37.625-61.871094 60.804688-105.3125 60.804688-43.445312 0-83.59375-23.183594-105.316406-60.804688l-6.257813-10.84375-48.425781 10.84375c-32.203125 7.210938-60 37-60 70zm0 0" fill="#ffd89e"/><path d="m124.683594 30c21.722656 37.621094 61.871094 60.800781 105.316406 60.800781 43.441406 0 83.589844-23.179687 105.3125-60.800781l6.261719-10.84375-40.902344-9.15625c-14.578125 25.25-41.519531 40.804688-70.671875 40.804688-29.15625 0-56.097656-15.554688-70.675781-40.804688l-40.898438 9.15625zm0 0" fill="#ffc059"/><path d="m372.671875 212.980469h77.324219v40h-77.324219zm0 0" fill="#ffc059"/><path d="m230 50.804688c29.152344 0 56.09375-15.554688 70.671875-40.804688h-141.347656c14.578125 25.25 41.519531 40.804688 70.675781 40.804688zm0 0" fill="#ffd89e"/></g><path d="m372.671875 432c-5.523437 0-10 4.476562-10 10v10h-8.90625c-5.519531 0-10 4.476562-10 10 0 5.519531 4.480469 10 10 10h8.90625v20h-265.347656v-20h11.65625c5.519531 0 10-4.480469 10-10 0-5.523438-4.480469-10-10-10h-11.65625v-259.019531c0-5.523438-4.476563-10-10-10-5.519531 0-10 4.476562-10 10v10h-57.324219v-102.980469c0-2.300781.171875-4.664062.507812-7.023438.78125-5.464843-3.019531-10.53125-8.484374-11.3125-5.476563-.78125-10.53125 3.019532-11.3125 8.484376-.472657 3.292968-.710938 6.605468-.710938 9.851562v152.984375c0 5.523437 4.476562 10 10 10h67.328125v239.015625c0 5.523438 4.476563 10 9.996094 10h285.347656c5.523437 0 10-4.476562 10-10v-60c0-5.523438-4.476563-10-10-10zm-352.671875-189.019531v-20h57.324219v20zm0 0"/><path d="m439.582031 48.722656c-12.625-14.347656-29.460937-24.464844-47.398437-28.480468l-48.347656-10.824219c-.042969-.011719-.089844-.023438-.136719-.03125l-40.777344-9.132813c-.371094-.082031-.742187-.144531-1.113281-.1874998-.070313-.0078124-.136719-.0078124-.207032-.015625-.277343-.0273437-.554687-.0429687-.832031-.04687495-.03125 0-.066406-.00390625-.097656-.00390625h-141.347656c-.035157 0-.070313.00390625-.105469.0078125-.265625 0-.53125.0195313-.800781.0429687-.074219.0078126-.15625.0078126-.234375.015625-.367188.0429688-.734375.1054688-1.097656.1874998l-40.816407 9.140625c-.027343.003907-.054687.011719-.085937.019531l-48.367188 10.828126c-2.316406.519531-4.667968 1.15625-6.996094 1.898437-5.261718 1.671875-8.171874 7.296875-6.5 12.558594 1.675782 5.261719 7.300782 8.175781 12.558594 6.5 1.773438-.5625 3.558594-1.046875 5.304688-1.4375l41.253906-9.238281 2.585938 4.476562c23.433593 40.589844 67.105468 65.800781 113.976562 65.800781 46.867188 0 90.539062-25.210937 113.972656-65.800781l2.585938-4.480469 41.253906 9.238281c29.265625 6.550782 52.1875 33.011719 52.1875 60.242188v102.980469h-57.328125v-10c0-5.523438-4.476563-10-10-10-5.519531 0-10 4.476562-10 10v169.019531c0 5.523438 4.480469 10 10 10 5.523437 0 10-4.476562 10-10v-99.015625h67.328125c5.519531 0 10-4.476563 10-10v-152.984375c-.003906-18.101562-7.253906-36.3125-20.417969-51.277344zm-159.144531-28.722656c-13.25 13.121094-31.355469 20.804688-50.4375 20.804688s-37.191406-7.683594-50.441406-20.804688zm-50.4375 60.804688c-39.382812 0-76.089844-21-96.09375-54.867188l20.757812-4.648438c16.988282 24.539063 45.207032 39.515626 75.335938 39.515626 30.125 0 58.34375-14.976563 75.332031-39.515626l20.757813 4.648438c-20.003906 33.867188-56.710938 54.867188-96.089844 54.867188zm152.671875 162.175781v-20h57.324219v20zm0 0"/><path d="m174.902344 472c5.519531 0 10-4.480469 10-10 0-5.523438-4.480469-10-10-10h-18.90625c-5.519532 0-10 4.476562-10 10 0 5.519531 4.480468 10 10 10zm0 0"/><path d="m240.824219 472c5.523437 0 10-4.480469 10-10 0-5.523438-4.476563-10-10-10h-18.902344c-5.523437 0-10 4.476562-10 10 0 5.519531 4.476563 10 10 10zm0 0"/><path d="m306.75 472c5.519531 0 10-4.480469 10-10 0-5.523438-4.480469-10-10-10h-18.90625c-5.519531 0-10 4.476562-10 10 0 5.519531 4.480469 10 10 10zm0 0"/><path d="m29.351562 63.746094c2.71875 0 5.429688-1.101563 7.402344-3.273438l.003906-.003906c3.714844-4.085938 3.414063-10.410156-.671874-14.125-4.089844-3.714844-10.414063-3.410156-14.128907.675781-3.714843 4.085938-3.414062 10.410157.671875 14.125 1.914063 1.742188 4.324219 2.601563 6.722656 2.601563zm0 0"/><path d="m372.671875 392c-5.523437 0-10 4.476562-10 10s4.476563 10 10 10 10-4.476562 10-10v-.003906c0-5.523438-4.476563-9.996094-10-9.996094zm0 0"/></svg>