<?xml version="1.0" encoding="iso-8859-1"?>
<!-- Generator: Adobe Illustrator 19.0.0, SVG Export Plug-In . SVG Version: 6.00 Build 0)  -->
<svg version="1.1" id="Capa_1" xmlns="http://www.w3.org/2000/svg" xmlns:xlink="http://www.w3.org/1999/xlink" x="0px" y="0px"
	 viewBox="0 0 512 512" style="enable-background:new 0 0 512 512;" xml:space="preserve">
<rect x="9.846" y="9.846" style="fill:#EDEEF0;" width="492.308" height="492.308"/>
<circle style="fill:#AEADB3;" cx="256" cy="256" r="29.657"/>
<path d="M502.154,0H9.846C4.408,0,0,4.409,0,9.846v492.308C0,507.591,4.408,512,9.846,512h492.308c5.438,0,9.846-4.409,9.846-9.846
	V9.846C512,4.409,507.592,0,502.154,0z M492.308,492.308H19.692v-19.692h59.323c5.438,0,9.846-4.409,9.846-9.846
	s-4.408-9.846-9.846-9.846H19.692V19.692h472.615V492.308z"/>
<path d="M256,443.077c103.154,0,187.077-83.922,187.077-187.077S359.154,68.923,256,68.923S68.923,152.845,68.923,256
	S152.846,443.077,256,443.077z M256,88.615c92.296,0,167.385,75.089,167.385,167.385S348.296,423.385,256,423.385
	S88.615,348.296,88.615,256S163.704,88.615,256,88.615z"/>
<path d="M117.642,459.008c-0.246-0.601-0.542-1.171-0.906-1.702c-0.354-0.543-0.768-1.045-1.221-1.498
	c-1.831-1.831-4.372-2.885-6.961-2.885c-2.59,0-5.13,1.053-6.961,2.885c-0.453,0.453-0.866,0.955-1.221,1.498
	c-0.354,0.532-0.66,1.102-0.906,1.702c-0.246,0.591-0.433,1.211-0.561,1.841c-0.128,0.63-0.197,1.28-0.197,1.92
	c0,2.59,1.054,5.13,2.885,6.96c0.453,0.453,0.955,0.867,1.497,1.221c0.532,0.364,1.103,0.66,1.694,0.906
	c0.601,0.246,1.221,0.443,1.851,0.571c0.63,0.128,1.28,0.187,1.92,0.187s1.29-0.06,1.92-0.187c0.63-0.128,1.25-0.325,1.851-0.571
	c0.591-0.246,1.162-0.542,1.694-0.906c0.542-0.353,1.044-0.768,1.497-1.221c1.831-1.83,2.885-4.371,2.885-6.96
	c0-0.64-0.059-1.291-0.187-1.92C118.085,460.219,117.888,459.598,117.642,459.008z"/>
<path d="M256,295.508c21.785,0,39.508-17.723,39.508-39.508S277.785,216.492,256,216.492S216.492,234.215,216.492,256
	S234.215,295.508,256,295.508z M256,236.185c10.926,0,19.815,8.889,19.815,19.815s-8.889,19.815-19.815,19.815
	c-10.926,0-19.815-8.889-19.815-19.815C236.185,245.074,245.074,236.185,256,236.185z"/>
<g>
</g>
<g>
</g>
<g>
</g>
<g>
</g>
<g>
</g>
<g>
</g>
<g>
</g>
<g>
</g>
<g>
</g>
<g>
</g>
<g>
</g>
<g>
</g>
<g>
</g>
<g>
</g>
<g>
</g>
</svg>
