<?xml version="1.0" encoding="utf-8"?>
<!-- Generator: Adobe Illustrator 22.1.0, SVG Export Plug-In . SVG Version: 6.00 Build 0)  -->
<svg xmlns="http://www.w3.org/2000/svg" xmlns:xlink="http://www.w3.org/1999/xlink" version="1.1" id="Layer_1" x="0px" y="0px" viewBox="0 0 256 256" style="enable-background:new 0 0 256 256;" xml:space="preserve" width="512" height="512">
<style type="text/css">
	.st0{fill:#F9CFCF;}
	.st1{fill:#3762CC;}
	.st2{fill:#6BDDDD;}
	.st3{fill:#E0EBFC;}
	.st4{fill:#EAA97D;}
	.st5{fill:#A4C9FF;}
	.st6{fill:#F9A7A7;}
	.st7{fill:#4671C6;}
	.st8{fill:#FFEA92;}
	.st9{fill:#B9BEFC;}
	.st10{fill:#3962CA;}
	.st11{fill:#DDA073;}
</style>
<g>
	<g>
		<path class="st5" d="M64.5,248h-24c-3.314,0-6-2.686-6-6v-16h36v16C70.5,245.314,67.814,248,64.5,248z"/>
	</g>
	<g>
		<path class="st5" d="M182.5,248h-24c-3.314,0-6-2.686-6-6v-16h36v16C188.5,245.314,185.814,248,182.5,248z"/>
	</g>
	<g>
		<path class="st1" d="M64.5,250h-24c-4.411,0-8-3.589-8-8v-16c0-1.104,0.896-2,2-2h36c1.104,0,2,0.896,2,2v16    C72.5,246.411,68.911,250,64.5,250z M36.5,228v14c0,2.206,1.794,4,4,4h24c2.206,0,4-1.794,4-4v-14H36.5z"/>
	</g>
	<g>
		<path class="st1" d="M182.5,250h-24c-4.411,0-8-3.589-8-8v-16c0-1.104,0.896-2,2-2h36c1.104,0,2,0.896,2,2v16    C190.5,246.411,186.911,250,182.5,250z M154.5,228v14c0,2.206,1.794,4,4,4h24c2.206,0,4-1.794,4-4v-14H154.5z"/>
	</g>
	<g>
		<path class="st3" d="M196.5,226h-170c-6.627,0-12-5.373-12-12V20c0-6.627,5.373-12,12-12h170c6.627,0,12,5.373,12,12v194    C208.5,220.627,203.127,226,196.5,226z"/>
	</g>
	<g>
		<path class="st5" d="M196.5,8h-170c-6.627,0-12,5.373-12,12v34h194V20C208.5,13.373,203.127,8,196.5,8z"/>
	</g>
	<g>
		<path class="st1" d="M196.5,228h-170c-7.72,0-14-6.28-14-14V20c0-7.72,6.28-14,14-14h170c7.72,0,14,6.28,14,14v194    C210.5,221.72,204.22,228,196.5,228z M26.5,10c-5.514,0-10,4.486-10,10v194c0,5.514,4.486,10,10,10h170c5.514,0,10-4.486,10-10V20    c0-5.514-4.486-10-10-10H26.5z"/>
	</g>
	<g>
		<circle class="st6" cx="111.5" cy="140" r="73"/>
	</g>
	<g>
		<circle class="st5" cx="111.5" cy="140" r="55"/>
	</g>
	<g>
		<path class="st6" d="M87.12,40.333h-48c-2.209,0-4-1.791-4-4v-12c0-2.209,1.791-4,4-4h48c2.209,0,4,1.791,4,4v12    C91.12,38.542,89.329,40.333,87.12,40.333z"/>
	</g>
	<g>
		<circle class="st8" cx="133.88" cy="30.333" r="14"/>
	</g>
	<g>
		<circle class="st8" cx="173.88" cy="30.333" r="14"/>
	</g>
	<g>
		<path class="st1" d="M111.5,215c-41.355,0-75-33.645-75-75s33.645-75,75-75s75,33.645,75,75S152.855,215,111.5,215z M111.5,69    c-39.149,0-71,31.851-71,71s31.851,71,71,71s71-31.851,71-71S150.649,69,111.5,69z"/>
	</g>
	<g>
		<path class="st1" d="M111.5,197c-31.43,0-57-25.57-57-57s25.57-57,57-57s57,25.57,57,57S142.93,197,111.5,197z M111.5,87    c-29.224,0-53,23.775-53,53s23.776,53,53,53s53-23.775,53-53S140.724,87,111.5,87z"/>
	</g>
	<g>
		<path class="st0" d="M226.316,196.8h-79.498c-2.9,0-5.251-2.351-5.251-5.251v-8.698c0-2.9,2.351-5.251,5.251-5.251h79.498    c2.9,0,5.251,2.351,5.251,5.251v8.698C231.567,194.449,229.216,196.8,226.316,196.8z"/>
	</g>
	<g>
		<path class="st0" d="M226.316,177.6h-79.498c-2.9,0-5.251-2.351-5.251-5.251v-8.698c0-2.9,2.351-5.251,5.251-5.251h79.498    c2.9,0,5.251,2.351,5.251,5.251v8.698C231.567,175.249,229.216,177.6,226.316,177.6z"/>
	</g>
	<g>
		<path class="st1" d="M226.315,198.8h-79.498c-3.998,0-7.251-3.253-7.251-7.251v-8.697c0-3.999,3.253-7.252,7.251-7.252h79.498    c3.999,0,7.251,3.253,7.251,7.252v8.697C233.567,195.547,230.314,198.8,226.315,198.8z M146.818,179.6    c-1.792,0-3.251,1.459-3.251,3.252v8.697c0,1.793,1.458,3.251,3.251,3.251h79.498c1.793,0,3.251-1.458,3.251-3.251v-8.697    c0-1.793-1.458-3.252-3.251-3.252H146.818z"/>
	</g>
	<g>
		<path class="st1" d="M226.315,179.6h-79.498c-3.998,0-7.251-3.253-7.251-7.251v-8.697c0-3.998,3.253-7.251,7.251-7.251h79.498    c3.999,0,7.251,3.253,7.251,7.251v8.697C233.567,176.347,230.314,179.6,226.315,179.6z M146.818,160.4    c-1.792,0-3.251,1.458-3.251,3.251v8.697c0,1.793,1.458,3.251,3.251,3.251h79.498c1.793,0,3.251-1.458,3.251-3.251v-8.697    c0-1.793-1.458-3.251-3.251-3.251H146.818z"/>
	</g>
	<g>
		<path class="st8" d="M240.456,195.997l0.983-6.4c0.311-2.025-0.603-3.997-1.852-3.997H131.413c-1.249,0-2.163,1.972-1.852,3.997    l0.983,6.4c0.217,1.414,0.979,2.403,1.852,2.403h106.208C239.476,198.4,240.238,197.411,240.456,195.997z"/>
	</g>
	<g>
		<path class="st1" d="M238.604,200.4H132.396c-1.913,0-3.452-1.647-3.828-4.1l-0.983-6.4c-0.291-1.889,0.177-3.818,1.221-5.034    c0.701-0.816,1.627-1.267,2.608-1.267h108.174c0.98,0,1.907,0.45,2.608,1.267c1.043,1.216,1.511,3.146,1.221,5.034l-0.983,6.4    C242.056,198.753,240.517,200.4,238.604,200.4z M132.74,196.4H238.26c0.073-0.135,0.167-0.367,0.219-0.707l0.983-6.4    c0.119-0.772-0.064-1.407-0.217-1.693H131.754c-0.153,0.286-0.335,0.921-0.217,1.693l0.983,6.4    C132.573,196.033,132.667,196.266,132.74,196.4z M240.456,195.997h0.01H240.456z"/>
	</g>
	<g>
		<path class="st2" d="M134.862,198.4l7.067,45.996c0.326,2.121,1.469,3.604,2.777,3.604h81.588c1.309,0,2.452-1.483,2.777-3.604    l7.067-45.996H134.862z"/>
	</g>
	<g>
		<path class="st1" d="M226.294,250h-81.588c-2.356,0-4.267-2.13-4.754-5.301l-7.066-45.995c-0.089-0.577,0.079-1.163,0.459-1.606    c0.38-0.442,0.934-0.697,1.518-0.697h101.276c0.583,0,1.138,0.255,1.518,0.697c0.38,0.443,0.548,1.029,0.459,1.606l-7.066,45.995    C230.561,247.87,228.65,250,226.294,250z M137.192,200.4l6.713,43.691c0.194,1.261,0.71,1.849,0.876,1.92L226.294,246    c0.09-0.06,0.607-0.647,0.801-1.908l6.712-43.691H137.192z"/>
	</g>
</g>
</svg>
